<?xml version="1.0" standalone="no"?>
<!DOCTYPE svg PUBLIC "-//W3C//DTD SVG 20010904//EN"
 "http://www.w3.org/TR/2001/REC-SVG-20010904/DTD/svg10.dtd">
<svg version="1.0" xmlns="http://www.w3.org/2000/svg"
 width="594.000000pt" height="594.000000pt" viewBox="0 0 594.000000 594.000000"
 preserveAspectRatio="xMidYMid meet">
<metadata>
Created by potrace 1.14, written by Peter Selinger 2001-2017
</metadata>
<g transform="translate(0.000000,594.000000) scale(0.100000,-0.100000)"
fill="#000000" stroke="none">
<path d="M3657 5662 c-17 -2 -36 -15 -50 -34 -12 -17 -52 -50 -89 -74 -38 -24
-68 -47 -68 -51 0 -5 -17 -19 -38 -32 -56 -37 -112 -93 -105 -105 3 -6 3 -8
-1 -5 -4 4 -19 -3 -33 -15 -34 -27 -279 -262 -403 -386 -52 -52 -115 -113
-140 -134 -25 -22 -85 -76 -135 -121 -163 -149 -276 -249 -344 -304 -256 -207
-440 -387 -596 -581 -33 -41 -69 -88 -79 -105 -23 -35 -95 -219 -101 -256 -2
-14 -11 -63 -19 -109 -9 -45 -16 -101 -17 -124 -1 -22 -4 -52 -9 -66 -7 -23
-8 -21 -15 17 -4 23 -12 41 -18 40 -5 -1 -14 13 -19 31 -5 17 -15 32 -23 32
-9 0 -15 9 -15 23 0 37 -64 63 -116 47 -68 -20 -119 -29 -129 -21 -23 18 -78
31 -90 21 -12 -10 -45 20 -45 43 0 8 -4 7 -10 -3 -8 -13 -11 -12 -24 5 -13 17
-15 100 -16 612 l0 593 32 27 c45 40 155 156 225 238 67 78 132 141 304 292
125 110 233 226 221 237 -4 4 -2 6 5 4 6 -2 70 54 141 125 l129 128 -438 -1
c-262 -1 -441 -5 -444 -11 -4 -5 -25 -9 -49 -9 -23 0 -46 -4 -52 -9 -5 -4 -43
-19 -84 -32 -41 -13 -77 -26 -80 -29 -3 -4 -25 -16 -50 -28 -25 -12 -40 -22
-35 -22 6 -1 -3 -7 -20 -14 -16 -7 -40 -22 -52 -32 -12 -11 -37 -30 -54 -44
-43 -32 -112 -100 -103 -100 4 0 -4 -10 -18 -22 -43 -39 -84 -106 -148 -237
-67 -138 -87 -251 -94 -526 -3 -115 -9 -282 -12 -370 l-7 -161 33 -84 c24 -61
47 -99 80 -135 26 -27 69 -84 96 -125 30 -46 121 -149 235 -265 102 -104 234
-242 292 -305 58 -63 132 -137 164 -165 31 -27 92 -93 136 -145 l78 -95 -413
-6 c-227 -3 -479 -7 -559 -8 l-147 -1 -7 -46 c-3 -25 -3 -63 0 -85 l7 -39 633
0 633 0 116 -116 c118 -117 154 -160 143 -171 -4 -3 -343 -8 -754 -10 -412 -2
-754 -5 -760 -8 -9 -3 -13 -31 -13 -90 l0 -85 748 -2 c411 -2 792 -3 848 -3
l101 0 59 -52 c32 -29 106 -90 163 -135 57 -46 106 -89 109 -96 3 -10 -191
-12 -1001 -10 -553 2 -1009 -1 -1013 -5 -13 -12 -16 -140 -5 -157 9 -13 71
-15 453 -15 1294 -1 2384 -6 2404 -11 21 -5 22 -9 12 -27 -6 -12 -16 -27 -22
-33 -103 -108 -149 -154 -155 -154 -4 0 -22 -15 -41 -33 l-35 -32 -967 4
c-722 3 -1019 0 -1177 -9 -176 -11 -217 -11 -253 0 -51 16 -163 79 -196 110
l-23 22 5 -54 c9 -90 28 -177 58 -263 16 -45 79 -176 98 -205 9 -14 34 -52 56
-85 40 -62 197 -225 217 -225 6 0 18 -6 26 -14 28 -24 174 -93 231 -109 116
-33 138 -38 225 -48 50 -5 295 -12 545 -16 449 -5 456 -5 515 16 33 12 67 23
75 24 8 1 19 8 23 15 11 17 27 15 27 -3 0 -8 6 -15 13 -15 6 0 64 -5 128 -10
64 -5 322 -11 573 -12 l456 -2 55 54 c30 29 52 57 49 62 -3 5 -2 7 3 6 13 -4
144 138 135 146 -4 4 -2 6 4 4 10 -3 105 83 320 286 41 38 71 73 68 78 -3 5
-2 7 3 6 5 -2 29 14 53 34 24 21 37 38 29 39 -8 1 -3 4 11 8 14 4 24 13 23 19
-2 7 1 12 7 12 20 0 150 118 150 137 0 8 5 11 10 8 6 -3 10 1 10 10 0 9 4 14
9 11 15 -9 54 41 47 61 -4 9 -4 14 0 10 4 -4 14 -1 23 6 14 11 15 10 1 -8 -8
-11 2 -5 23 14 20 19 34 38 31 43 -3 4 1 8 8 8 24 0 81 67 76 88 -3 11 0 19 7
19 8 0 11 -7 8 -16 -3 -9 11 1 31 21 21 21 34 42 31 48 -3 5 -1 18 5 27 10 16
11 15 7 -5 -3 -12 -3 -22 0 -22 7 0 29 24 32 35 2 6 7 9 11 8 4 -1 14 4 20 12
10 12 9 15 -4 15 -10 0 -14 -4 -11 -10 3 -5 3 -10 0 -10 -3 0 -11 13 -16 30
-6 16 -15 30 -20 30 -5 0 -9 9 -9 20 0 11 5 20 10 20 17 0 11 25 -10 40 -11 8
-20 20 -20 27 0 7 -4 13 -10 13 -5 0 -10 11 -10 24 0 28 -11 37 -63 55 -37 12
-40 12 -66 -13 -44 -42 -47 -30 -4 17 22 23 59 63 83 89 23 26 47 45 53 41 6
-3 7 -1 3 6 -4 6 1 24 11 39 65 98 95 160 80 165 -16 6 -109 -4 -122 -13 -5
-4 -19 -10 -30 -14 -23 -7 -259 -232 -561 -536 -113 -113 -212 -212 -221 -220
-9 -8 -44 -44 -77 -79 -34 -35 -79 -80 -101 -100 -22 -20 -67 -62 -101 -94
-33 -31 -68 -57 -77 -57 -10 0 -17 -8 -18 -17 -1 -28 -75 -87 -96 -78 -17 8
-17 8 0 12 9 3 17 9 17 14 0 5 9 9 21 9 16 0 19 5 15 23 -3 12 -3 16 0 10 9
-19 24 -16 24 5 0 11 9 29 20 42 16 18 23 20 34 11 10 -8 16 -9 21 -1 3 5 -1
13 -9 16 -12 4 -16 20 -16 55 0 42 3 49 20 49 11 0 20 4 20 8 0 4 -9 14 -20
22 -11 8 -20 22 -20 32 0 11 -7 18 -20 18 -11 0 -20 -4 -20 -10 0 -17 -32 -11
-36 8 -4 13 -15 17 -45 16 -21 -1 -39 2 -39 6 0 17 212 220 223 213 7 -3 9 -3
5 2 -5 5 6 16 22 26 17 11 30 23 30 28 0 5 35 38 78 73 101 82 160 136 317
291 374 370 484 644 473 1190 l-3 178 104 -108 c134 -139 243 -254 307 -325
l51 -57 6 -203 c7 -218 7 -808 0 -770 -2 12 -9 22 -15 22 -7 0 -8 -12 -3 -32
4 -18 8 -41 8 -50 1 -9 5 -14 9 -12 4 3 12 -5 17 -18 15 -39 32 -194 24 -215
-5 -12 -28 -38 -53 -58 -25 -21 -155 -147 -290 -280 -135 -134 -265 -260 -290
-281 -55 -48 -41 -35 -196 -179 -70 -66 -157 -150 -193 -188 -35 -37 -111
-109 -168 -159 -82 -73 -100 -94 -86 -98 27 -9 970 8 1033 19 144 25 271 72
375 139 11 6 27 15 35 19 19 8 200 191 200 202 0 4 9 19 20 32 33 40 55 73 67
99 4 8 9 17 12 20 9 8 41 71 41 81 0 5 11 33 25 61 14 29 29 78 35 110 5 32
11 61 13 66 3 4 6 253 8 553 l4 547 -46 49 c-45 48 -79 101 -79 123 0 16 27
12 72 -11 33 -17 42 -18 49 -7 5 7 9 148 9 313 0 197 -4 295 -10 285 -6 -10
-10 -11 -10 -2 0 7 -14 12 -34 12 -19 0 -37 6 -39 13 -4 9 -8 9 -15 -2 -7 -10
-21 -12 -46 -8 -22 3 -36 2 -36 -5 0 -5 -8 -7 -17 -4 -9 4 -20 1 -25 -6 -6
-10 -10 -10 -16 -1 -6 9 -18 9 -51 -3 -25 -8 -47 -11 -50 -7 -3 5 -18 9 -33
10 -20 0 -27 -5 -30 -22 -3 -13 -1 -30 4 -39 6 -12 5 -16 -6 -16 -8 0 -19 -8
-25 -17 -9 -16 -13 -15 -43 13 -104 98 -488 480 -488 487 0 4 218 7 485 7
l485 0 0 92 0 91 -568 -6 -568 -6 -105 102 c-91 88 -159 171 -159 193 0 4 28
3 63 -1 34 -4 105 -6 157 -6 52 1 338 3 635 4 l540 2 3 93 3 92 -803 0 -803 0
-140 134 c-77 74 -138 136 -135 139 3 3 427 8 943 12 l937 8 0 42 c0 23 -3 62
-6 86 l-6 44 -487 -2 c-1902 -8 -2291 -9 -2291 -3 0 10 100 110 139 140 45 35
102 89 129 125 l23 29 1065 4 1065 4 52 -54 c29 -29 72 -68 97 -85 25 -17 63
-50 85 -72 21 -23 45 -41 52 -41 7 0 13 -4 13 -9 0 -5 14 -11 30 -13 l30 -5 0
114 c0 103 -15 207 -40 268 -4 11 -15 40 -25 65 -38 97 -119 240 -137 240 -4
0 -8 5 -8 12 0 18 -111 118 -124 111 -6 -3 -8 -3 -4 2 8 9 -47 62 -74 71 -10
3 -18 10 -18 15 0 5 -6 9 -14 9 -8 0 -21 6 -28 13 -19 18 -135 64 -183 72 -22
4 -44 10 -50 15 -14 11 -95 19 -320 29 -190 10 -866 19 -918 13z m-502 -1263
c232 -29 478 -129 635 -260 64 -53 234 -226 280 -284 80 -100 179 -280 215
-390 49 -152 68 -292 62 -465 -5 -133 -10 -169 -36 -255 -76 -253 -90 -287
-175 -420 -131 -205 -341 -400 -541 -502 -207 -106 -492 -152 -750 -123 -194
23 -296 51 -435 120 -191 94 -341 206 -462 343 -156 177 -275 405 -320 612
-25 115 -35 398 -19 505 25 162 85 325 160 440 31 47 61 95 68 108 25 47 179
206 297 305 164 139 363 228 581 261 112 17 321 19 440 5z m2095 -1424 c7 -8
9 -15 6 -15 -4 0 -14 7 -22 15 -9 8 -11 15 -6 15 5 0 15 -7 22 -15z m-650
-1095 c0 -5 -5 -10 -11 -10 -5 0 -7 5 -4 10 3 6 8 10 11 10 2 0 4 -4 4 -10z
m-97 -67 c-16 -15 -32 -36 -36 -45 -3 -10 -14 -18 -23 -18 -10 0 -14 -5 -11
-14 6 -16 -16 -40 -26 -29 -4 3 -18 -4 -32 -17 -14 -13 -27 -21 -30 -18 -3 2
9 18 26 34 25 24 32 26 40 14 8 -12 9 -10 4 6 -4 17 7 32 51 73 59 53 88 65
37 14z m-123 -167 c0 -2 -18 -6 -39 -8 -22 -2 -37 0 -35 4 5 8 74 11 74 4z
m-147 -90 c4 -10 1 -13 -8 -9 -8 3 -12 9 -9 14 7 12 11 11 17 -5z m467 10 c0
-3 -4 -8 -10 -11 -5 -3 -10 -1 -10 4 0 6 5 11 10 11 6 0 10 -2 10 -4z m-511
-49 c-13 -13 -26 -22 -28 -20 -7 5 31 43 42 43 6 0 -1 -10 -14 -23z m431 -21
c0 -3 -4 -8 -10 -11 -5 -3 -10 -1 -10 4 0 6 5 11 10 11 6 0 10 -2 10 -4z m-15
-36 c-3 -5 -14 -10 -23 -9 -14 0 -13 2 3 9 27 11 27 11 20 0z m-545 -80 c-12
-17 -26 -27 -32 -24 -6 4 2 16 18 30 38 31 40 30 14 -6z m-790 -79 c0 -5 -7
-12 -16 -15 -14 -5 -15 -4 -4 9 14 17 20 19 20 6z m-943 -225 c13 -13 -21 -27
-52 -21 -65 12 -158 17 -152 8 3 -5 29 -10 57 -12 28 -1 64 -7 78 -13 15 -7
35 -12 44 -13 35 -4 48 -31 48 -100 l0 -67 50 7 c33 5 50 3 50 -4 0 -6 9 -3
20 6 15 13 17 19 7 26 -9 6 -8 8 2 5 8 -2 25 6 39 19 14 13 30 23 36 23 6 0 2
-7 -9 -15 -11 -8 -37 -31 -57 -52 l-38 -38 -577 0 c-454 0 -591 3 -638 14 -89
20 -185 49 -225 68 -58 26 -144 89 -167 120 l-21 30 189 7 c105 4 286 5 402 3
141 -3 180 -2 117 3 -55 4 90 7 347 6 244 -1 446 -6 450 -10z m357 -4 c6 -11
-34 -56 -42 -48 -3 3 3 15 13 25 17 20 16 20 -51 24 l-69 3 72 2 c39 1 74 -2
77 -6z m706 -52 c0 -14 -20 -22 -36 -16 -12 5 -13 8 -2 20 13 14 38 11 38 -4z
m-135 -130 c-10 -11 -20 -18 -23 -16 -5 6 21 35 32 36 5 0 1 -9 -9 -20z m-51
-44 c-10 -8 -21 -12 -24 -10 -5 6 21 24 34 24 6 0 1 -6 -10 -14z m-799 -376
c3 -5 1 -10 -4 -10 -6 0 -11 5 -11 10 0 6 2 10 4 10 3 0 8 -4 11 -10z m-35
-30 c0 -5 -7 -10 -15 -10 -8 0 -15 5 -15 10 0 6 7 10 15 10 8 0 15 -4 15 -10z"/>
<path d="M2780 3557 c-120 -41 -254 -153 -316 -264 -48 -86 -64 -150 -64 -266
0 -79 5 -113 26 -175 42 -126 90 -191 205 -278 96 -74 164 -95 324 -101 138
-5 121 -8 291 54 69 25 170 125 213 212 67 133 76 172 75 311 0 122 -1 127
-35 200 -65 138 -210 268 -347 310 -94 29 -282 28 -372 -3z"/>
<path d="M4132 3085 c0 -16 2 -22 5 -12 2 9 2 23 0 30 -3 6 -5 -1 -5 -18z"/>
<path d="M4121 2940 c0 -8 4 -22 9 -30 12 -18 12 -2 0 25 -6 13 -9 15 -9 5z"/>
<path d="M4121 2854 c0 -11 3 -14 6 -6 3 7 2 16 -1 19 -3 4 -6 -2 -5 -13z"/>
<path d="M3960 2835 c0 -10 -10 -15 -33 -15 -31 0 -40 -7 -67 -50 -9 -13 -11
-13 -19 0 -8 12 -13 11 -29 -8 -11 -12 -27 -22 -36 -22 -9 0 -16 -8 -16 -20 0
-13 -7 -20 -20 -20 -11 0 -20 -6 -20 -14 0 -8 -10 -17 -22 -21 -44 -12 -68
-29 -68 -47 0 -10 -7 -18 -15 -18 -8 0 -15 5 -15 10 0 6 -9 10 -20 10 -11 0
-19 -5 -18 -12 4 -17 -58 -37 -119 -37 -49 -1 -52 -2 -58 -31 -5 -24 -14 -32
-36 -37 -16 -3 -34 -12 -40 -19 -8 -10 -16 -11 -30 -4 -30 17 -69 2 -69 -26 0
-22 -34 -51 -52 -46 -5 1 -8 -3 -8 -8 0 -6 -13 -10 -29 -10 -23 0 -31 -6 -41
-31 -10 -23 -18 -29 -33 -25 -11 3 -28 1 -37 -4 -9 -5 -36 -10 -58 -11 -36 -3
-41 -6 -36 -21 6 -21 -29 -38 -82 -38 -24 0 -34 -5 -34 -15 0 -8 -6 -15 -14
-15 -8 0 -21 -9 -29 -20 -8 -11 -28 -23 -45 -26 -18 -4 -32 -10 -32 -15 0 -5
-9 -9 -19 -9 -11 0 -23 -9 -26 -20 -3 -11 -13 -20 -21 -20 -22 0 -50 -30 -36
-39 6 -3 12 -24 14 -46 2 -32 7 -39 21 -37 10 2 17 -3 17 -12 0 -8 9 -17 19
-21 11 -3 25 -13 32 -21 11 -14 8 -15 -27 -10 -35 5 -34 4 11 -9 28 -9 61 -17
75 -20 14 -2 52 -9 85 -14 137 -24 359 -7 510 40 144 44 365 165 349 191 -4 6
-3 8 4 4 6 -4 52 36 106 91 74 75 95 101 90 116 -4 13 -2 17 5 13 6 -4 18 -1
26 8 18 17 20 30 3 20 -7 -4 -8 -3 -4 4 4 7 13 12 19 12 7 0 21 12 31 27 11
14 14 23 8 19 -7 -4 -12 -1 -12 9 0 11 5 15 14 12 8 -3 18 5 25 19 9 20 8 24
-1 18 -7 -4 -3 4 10 18 17 19 20 28 11 33 -7 5 -10 4 -5 -3 3 -6 2 -13 -3 -16
-5 -4 -8 2 -6 11 2 10 4 23 4 28 1 6 5 3 11 -5 13 -21 23 -5 22 35 -1 26 2 33
13 28 19 -7 19 4 0 24 -9 8 -13 18 -9 22 4 3 9 0 11 -6 3 -7 9 -13 14 -13 6 0
7 5 4 10 -3 6 -1 10 6 10 6 0 9 8 6 20 -3 11 -1 18 4 14 15 -9 9 10 -10 34
-11 12 -24 22 -30 22 -6 0 -11 5 -11 10 0 6 -9 10 -20 10 -11 0 -20 7 -20 15
0 8 9 20 20 27 30 19 24 28 -20 28 -29 0 -40 -4 -40 -15z"/>
<path d="M4082 2770 c0 -14 2 -19 5 -12 2 6 2 18 0 25 -3 6 -5 1 -5 -13z"/>
<path d="M4102 2750 c0 -14 2 -19 5 -12 2 6 2 18 0 25 -3 6 -5 1 -5 -13z"/>
<path d="M2590 2150 c0 -5 7 -10 15 -10 8 0 15 5 15 10 0 6 -7 10 -15 10 -8 0
-15 -4 -15 -10z"/>
<path d="M1109 1058 c23 -6 37 -6 44 1 8 8 -2 11 -33 10 l-45 -1 34 -10z"/>
<path d="M2290 965 c0 -47 11 -56 36 -31 18 19 18 31 -3 56 -26 30 -33 25 -33
-25z"/>
<path d="M2290 882 c0 -5 -17 -14 -37 -20 l-38 -10 48 -1 c31 -1 54 4 63 14 9
8 11 15 6 15 -6 0 -17 3 -26 6 -9 3 -16 2 -16 -4z"/>
<path d="M3648 1288 c-10 -10 -14 -18 -9 -18 10 0 36 29 30 34 -2 1 -12 -6
-21 -16z"/>
<path d="M3600 1244 c0 -14 3 -14 15 -4 8 7 15 14 15 16 0 2 -7 4 -15 4 -8 0
-15 -7 -15 -16z"/>
<path d="M3550 1210 c0 -13 18 -22 24 -11 3 5 -1 11 -9 15 -8 3 -15 1 -15 -4z"/>
</g>
</svg>
